<svg xmlns="http://www.w3.org/2000/svg" xmlns:xlink="http://www.w3.org/1999/xlink" viewBox="0 0 745.54 294.34"><defs><style>.cls-1{font-size:100px;fill:#231f20;font-family:HarlowSolid, Harlow Solid Italic;}.cls-2,.cls-3,.cls-4,.cls-5,.cls-6,.cls-7{stroke:#231f20;stroke-miterlimit:10;}.cls-2{fill:url(#Fading_Sky);}.cls-3{fill:url(#linear-gradient);}.cls-4,.cls-5{stroke-width:3px;}.cls-4{fill:url(#Fading_Sky-2);}.cls-5{fill:url(#linear-gradient-2);}.cls-6{fill:url(#linear-gradient-3);}.cls-7{fill:#fff;stroke-width:6px;}</style><linearGradient id="Fading_Sky" x1="283.1" y1="114.15" x2="366.73" y2="114.15" gradientUnits="userSpaceOnUse"><stop offset="0" stop-color="#2484c6"/><stop offset="1" stop-color="#2484c6" stop-opacity="0"/></linearGradient><linearGradient id="linear-gradient" x1="363.75" y1="113.34" x2="460.66" y2="113.34" gradientUnits="userSpaceOnUse"><stop offset="0" stop-color="#2484c6" stop-opacity="0"/><stop offset="1" stop-color="#2484c6"/></linearGradient><linearGradient id="Fading_Sky-2" x1="280.1" y1="111.15" x2="363.73" y2="111.15" xlink:href="#Fading_Sky"/><linearGradient id="linear-gradient-2" x1="360.75" y1="110.34" x2="457.66" y2="110.34" xlink:href="#linear-gradient"/><linearGradient id="linear-gradient-3" x1="60.48" y1="246.14" x2="152.65" y2="246.14" gradientUnits="userSpaceOnUse"><stop offset="0" stop-color="#ed1c24"/><stop offset="0.2" stop-color="#f15a29"/><stop offset="0.4" stop-color="#f9ed32"/><stop offset="0.6" stop-color="#00a651"/><stop offset="0.8" stop-color="#1c75bc"/><stop offset="1" stop-color="#2e3192"/></linearGradient></defs><g id="text_elements" data-name="text elements"><text class="cls-1" transform="translate(113.72 252.29)">rints for You</text><path id="_3_shadow" data-name="3 shadow" class="cls-2" d="M283.23,146.55l25.51-2.89-.09,2.7q-.37,11,2.69,16.16c2.11,3.54,5.32,5.17,9.67,4.87a14.41,14.41,0,0,0,11-6.25q4.05-5.71,4.43-16.57.42-12-3.59-17c-2.64-3.27-6.8-4.48-12.43-3.66l-1.95.29a4.18,4.18,0,0,1-1.43.43L318,98l1.56-.3a18.43,18.43,0,0,0,11.93-7.48c2.92-3.9,4.51-9.13,4.73-15.67.19-5.36-.87-9.27-3.17-11.7-2.17-2.75-5.09-3.64-8.74-2.7A14.15,14.15,0,0,0,315.44,67c-2.14,3.35-3.38,7.93-3.73,13.78l-24.49,5.53c.64-14.55,4.21-26.84,10.85-37S314.21,32,326.84,28.06c11.61-3.63,20.94-2.57,27.74,3.37,7,6,10.35,16.24,9.85,30.63a57.61,57.61,0,0,1-5.86,24.18,38.75,38.75,0,0,1-14.74,16.14c7.43.68,13.22,4.49,17.27,11.49s6,16.75,5.57,28.88c-.61,17.65-5.52,32.16-14.53,43.26-8.7,10.87-19.43,16.24-31.95,16.33s-22-4.89-28.48-14.73c-6.31-9.6-9.11-22.73-8.53-39.56Z" transform="translate(-29.94 -21.47)"/><path id="D_shadow" data-name="D shadow" class="cls-3" d="M368.89,199,363.75,26.82s18.73,2.52,24.88,4.14A113.87,113.87,0,0,1,424.24,46.8a64.67,64.67,0,0,1,16.89,16.34,91.4,91.4,0,0,1,14,29A141.29,141.29,0,0,1,460.58,128c.39,12.93-.71,24.34-3.31,34.32s-6.73,18-12.45,24.42A35.81,35.81,0,0,1,429.13,197c-6,2.19-16,3.12-30.33,2.74l-5.16-.14Zm30.55-36.27,5,.47c11.49,1.06,19.45-1.72,24.15-8.22,4.66-6.24,6.74-16.67,6.3-31.38s-3.17-26-8.26-34.12-13.39-13.93-24.9-16.87l-5.07-1.3Z" transform="translate(-29.94 -21.47)"/><path id="_3_Shape" data-name="3 Shape" class="cls-4" d="M280.23,143.55l25.51-2.89-.09,2.7q-.37,11,2.69,16.16c2.11,3.54,5.32,5.17,9.67,4.87a14.41,14.41,0,0,0,11-6.25q4.05-5.71,4.43-16.57.42-12-3.59-17c-2.64-3.27-6.8-4.48-12.43-3.66l-1.95.29a4.18,4.18,0,0,1-1.43.43L315,95l1.56-.3a18.43,18.43,0,0,0,11.93-7.48c2.92-3.9,4.51-9.13,4.73-15.67.19-5.36-.87-9.27-3.17-11.7-2.17-2.75-5.09-3.64-8.74-2.7A14.15,14.15,0,0,0,312.44,64c-2.14,3.35-3.38,7.93-3.73,13.78l-24.49,5.53c.64-14.55,4.21-26.84,10.85-37S311.21,29,323.84,25.06c11.61-3.63,20.94-2.57,27.74,3.37,7,6,10.35,16.24,9.85,30.63a57.61,57.61,0,0,1-5.86,24.18,38.75,38.75,0,0,1-14.74,16.14c7.43.68,13.22,4.49,17.27,11.49s6,16.75,5.57,28.88c-.61,17.65-5.52,32.16-14.53,43.26-8.7,10.87-19.43,16.24-31.95,16.33s-22-4.89-28.48-14.73c-6.31-9.6-9.11-22.73-8.53-39.56Z" transform="translate(-29.94 -21.47)"/><path id="D_shape" data-name="D shape" class="cls-5" d="M365.89,196,360.75,23.82s18.73,2.52,24.88,4.14A113.87,113.87,0,0,1,421.24,43.8a64.67,64.67,0,0,1,16.89,16.34,91.4,91.4,0,0,1,14,29A141.29,141.29,0,0,1,457.58,125c.39,12.93-.71,24.34-3.31,34.32s-6.73,18-12.45,24.42A35.81,35.81,0,0,1,426.13,194c-6,2.19-16,3.12-30.33,2.74l-5.16-.14Zm30.55-36.27,5,.47c11.49,1.06,19.45-1.72,24.15-8.22,4.66-6.24,6.74-16.67,6.3-31.38s-3.17-26-8.26-34.12-13.39-13.93-24.9-16.87l-5.07-1.3Z" transform="translate(-29.94 -21.47)"/></g><g id="design_elements" data-name="design elements"><g id="P_dripping_from_printer" data-name="P dripping from printer"><path id="P_shape" data-name="P shape" class="cls-6" d="M73.49,268.82c-1.47,4.94-.24,9.32,1.63,11.46s3.67,2.46,6.83,2.46a13.18,13.18,0,0,0,10.3-5q4.35-5,9.57-17.87l17-41.65h-5.32c-4.5,0-6.74-1.56-6.74-4.69a6.14,6.14,0,0,1,2.37-5.15,10.66,10.66,0,0,1,6.66-1.83h18.6q9.38,0,13.85,3.54T152.65,221a18.19,18.19,0,0,1-6.93,14.7q-5,4.16-15.53,4.15H123.5l-8.1,20q-6.06,14.85-9.35,20.46a33.89,33.89,0,0,1-8.33,9.57,26.68,26.68,0,0,1-17,5.76q-10.2,0-16.55-6.44c-4.23-4.3-4.22-11.45-3-18.2,4.67-25.59,42.39-74.35,42.39-74.35S74.67,264.85,73.49,268.82Zm55.42-44.18h4q7.81,0,7.81-6.35,0-3.61-4.44-3.61H133Z" transform="translate(-29.94 -21.47)"/></g><polygon id="printer_head" data-name="printer head" class="cls-7" points="146.72 125.91 104.02 125.91 103.84 136.83 73.22 172.85 43.98 137.84 43.98 125.91 3 125.91 3 95.45 3 4.04 146.72 4.04 146.72 95.45 146.72 125.91"/></g></svg>